<?xml version="1.0" encoding="UTF-8"?>
<svg xmlns="http://www.w3.org/2000/svg" width="1200" height="750" viewBox="0 0 1200 750" role="img" aria-labelledby="title desc">
  <title id="title">Fotbalové hřiště - 3</title>
  <desc id="desc">Ilustrační obrázek pro galerii TJ Baník Rynholec.</desc>
  <defs>
    <linearGradient id="bg" x1="0" y1="0" x2="1" y2="1">
      <stop offset="0" stop-color="#07100a"/>
      <stop offset="0.58" stop-color="#0b120d"/>
      <stop offset="1" stop-color="#020403"/>
    </linearGradient>
    <radialGradient id="glow" cx="34%" cy="18%" r="70%">
      <stop offset="0" stop-color="#2f8f46" stop-opacity="0.42"/>
      <stop offset="0.42" stop-color="#2f8f46" stop-opacity="0.12"/>
      <stop offset="1" stop-color="#2f8f46" stop-opacity="0"/>
    </radialGradient>
    <pattern id="grid" width="54" height="54" patternUnits="userSpaceOnUse">
      <path d="M54 0H0V54" fill="none" stroke="#ffffff" stroke-opacity="0.11" stroke-width="1"/>
    </pattern>
    <filter id="shadow" x="-20%" y="-20%" width="140%" height="140%">
      <feDropShadow dx="0" dy="24" stdDeviation="24" flood-color="#000000" flood-opacity="0.34"/>
    </filter>
  </defs>
  <rect width="1200" height="750" fill="url(#bg)"/>
  <rect width="1200" height="750" fill="url(#glow)"/>
  <rect width="1200" height="750" fill="url(#grid)" opacity="0.62"/>
  <path d="M-70 650C210 528 382 686 622 570C850 460 973 494 1270 348" fill="none" stroke="#2f8f46" stroke-opacity="0.32" stroke-width="142"/>
  <path d="M-20 712C190 612 420 678 638 588C880 488 982 514 1248 407" fill="none" stroke="#ffffff" stroke-opacity="0.08" stroke-width="70"/>
  <g transform="translate(0 26) rotate(-4 855 292)" filter="url(#shadow)">
    <rect x="650" y="128" width="416" height="342" rx="18" fill="#050805" stroke="#ffffff" stroke-opacity="0.16"/>
    
      <rect x="692" y="174" width="330" height="214" rx="6" stroke="#2f8f46" stroke-width="8" fill="none" stroke-linecap="round" stroke-linejoin="round" opacity="0.9"/>
      <line x1="857" y1="174" x2="857" y2="388" stroke="#2f8f46" stroke-width="8" fill="none" stroke-linecap="round" stroke-linejoin="round" opacity="0.9"/>
      <circle cx="857" cy="281" r="43" stroke="#2f8f46" stroke-width="8" fill="none" stroke-linecap="round" stroke-linejoin="round" opacity="0.9"/>
      <rect x="692" y="226" width="68" height="110" stroke="#2f8f46" stroke-width="8" fill="none" stroke-linecap="round" stroke-linejoin="round" opacity="0.9"/>
      <rect x="954" y="226" width="68" height="110" stroke="#2f8f46" stroke-width="8" fill="none" stroke-linecap="round" stroke-linejoin="round" opacity="0.9"/>
  </g>
  <g opacity="0.92">
    <rect x="82" y="102" width="78" height="8" fill="#2f8f46"/>
    <rect x="82" y="130" width="320" height="16" rx="8" fill="#ffffff" fill-opacity="0.26"/>
    <rect x="82" y="164" width="220" height="16" rx="8" fill="#ffffff" fill-opacity="0.12"/>
    <rect x="82" y="596" width="120" height="120" rx="0" fill="#2f8f46" fill-opacity="0.12" stroke="#2f8f46" stroke-opacity="0.36"/>
    <path d="M116 656h52M142 630v52" stroke="#2f8f46" stroke-width="8" stroke-linecap="round" opacity="0.86"/>
  </g>
</svg>
